<svg width="22" height="15" viewBox="0 0 22 15" fill="none" xmlns="http://www.w3.org/2000/svg">
    <path
        d="M12.6326 6.08736C12.6328 6.08752 12.633 6.0877 12.6333 6.08786L13.1115 6.45614L14.2832 7.35831L13.8995 5.93022C13.6061 4.8385 13.0132 3.85063 12.1877 3.07831C11.3622 2.30599 10.3371 1.78004 9.22825 1.55993C8.11944 1.33982 6.97116 1.43432 5.91326 1.83276C4.85536 2.23119 3.93003 2.91767 3.24191 3.81456C2.5538 4.71144 2.13034 5.78297 2.01943 6.90796C1.90852 8.03295 2.11457 9.16654 2.61429 10.1805C3.11402 11.1945 3.88747 12.0485 4.8472 12.6458C5.80693 13.2432 6.91465 13.5601 8.0451 13.5608H8.04538C8.12186 13.5608 8.19645 13.5571 8.25909 13.5538C8.5135 13.7931 8.7825 14.016 9.0644 14.2211C8.72762 14.2723 8.38692 14.2982 8.04517 14.2984L8.04465 14.2984C6.77299 14.3002 5.52628 13.9455 4.44607 13.2745C3.36586 12.6035 2.49543 11.643 1.9336 10.5022C1.37178 9.36135 1.14107 8.08585 1.26768 6.8205C1.39428 5.55516 1.87313 4.35065 2.64984 3.34375C3.42655 2.33685 4.47002 1.5679 5.66177 1.12419C6.85351 0.680481 8.14579 0.5798 9.39188 0.833577C10.638 1.08735 11.7879 1.68542 12.7112 2.55987C13.6345 3.43433 14.2941 4.55013 14.6152 5.7806L14.8668 6.74499L15.4894 5.96672L15.7294 5.66672L15.7295 5.66679L15.7361 5.65812C15.7654 5.61982 15.802 5.58767 15.8437 5.5635C15.8854 5.53932 15.9315 5.5236 15.9793 5.51723C16.0271 5.51086 16.0757 5.51397 16.1222 5.52637C16.1688 5.53878 16.2125 5.56024 16.2508 5.58953C16.2891 5.61882 16.3213 5.65537 16.3455 5.69709C16.3696 5.7388 16.3854 5.78487 16.3917 5.83267C16.3981 5.88046 16.395 5.92904 16.3826 5.97564C16.3702 6.02223 16.3487 6.06592 16.3194 6.10422L16.3192 6.10449L14.752 8.15649L14.752 8.15648L14.7495 8.15975C14.6914 8.23721 14.6049 8.28849 14.5091 8.30237C14.414 8.31614 14.3174 8.29203 14.24 8.23531L12.1887 6.67048C12.1887 6.67046 12.1887 6.67045 12.1886 6.67044C12.1504 6.64125 12.1183 6.60483 12.0941 6.56324C12.07 6.52163 12.0542 6.47567 12.0478 6.42797C12.0414 6.38028 12.0445 6.3318 12.0568 6.28529C12.0691 6.23877 12.0905 6.19514 12.1197 6.15689L11.7222 5.85357L12.1197 6.15688C12.1489 6.11863 12.1853 6.0865 12.2269 6.06233C12.2685 6.03816 12.3145 6.02242 12.3622 6.01601C12.4099 6.0096 12.4584 6.01264 12.5049 6.02497C12.5511 6.03723 12.5945 6.05842 12.6326 6.08736ZM5.59662 9.16397C5.58372 9.06797 5.60936 8.97077 5.66791 8.89363C5.6681 8.89338 5.66829 8.89313 5.66848 8.89288L7.24626 6.84514L7.24627 6.84515L7.24853 6.84216C7.27753 6.80394 7.31379 6.77183 7.35524 6.74767C7.39668 6.72352 7.4425 6.70779 7.49005 6.7014C7.53759 6.69501 7.58593 6.69809 7.63229 6.71044C7.67864 6.7228 7.7221 6.7442 7.76015 6.77341L7.76133 6.77431L9.80604 8.33412C9.87594 8.3946 9.92065 8.47922 9.93114 8.57125C9.94192 8.66591 9.91565 8.76107 9.85784 8.83679C9.80003 8.91252 9.71515 8.96293 9.621 8.97747C9.5297 8.99157 9.43654 8.97088 9.35989 8.91969L8.89043 8.55821L7.71577 7.65372L8.10272 9.08487C8.39795 10.1768 8.99276 11.1644 9.81991 11.936C10.6471 12.7076 11.6736 13.2324 12.7834 13.4511C13.8932 13.6699 15.0421 13.5738 16.1001 13.1737C17.1582 12.7736 18.0832 12.0856 18.7707 11.1873C19.4582 10.289 19.8806 9.21632 19.9904 8.09049C20.1001 6.96466 19.8927 5.83059 19.3916 4.81646C18.8905 3.80234 18.1157 2.94862 17.1548 2.35179C16.1939 1.755 15.0853 1.43888 13.9542 1.43917C13.9541 1.43917 13.9541 1.43917 13.954 1.43917L13.9438 1.43917C13.8793 1.43916 13.8089 1.43916 13.7351 1.44115C13.4827 1.20423 13.2159 0.983495 12.9366 0.780145C14.0544 0.612247 15.1998 0.725499 16.2681 1.11408C17.526 1.57168 18.6208 2.39073 19.4149 3.46839C20.2089 4.54605 20.6669 5.83428 20.7314 7.17135C20.7958 8.50842 20.4638 9.83473 19.7771 10.9838C19.0903 12.1328 18.0794 13.0533 16.8713 13.6298C15.6631 14.2062 14.3116 14.4129 12.9864 14.2239C11.6612 14.0349 10.4213 13.4586 9.42255 12.5674C8.42375 11.6761 7.71051 10.5097 7.37237 9.21447L7.12065 8.25029L6.49815 9.02842L6.25815 9.32842L6.25805 9.32834L6.25109 9.33746C6.19214 9.41472 6.10491 9.46539 6.00859 9.47834C5.91227 9.49128 5.81476 9.46543 5.7375 9.40648C5.66024 9.34752 5.60956 9.26029 5.59662 9.16397Z"
        fill="black" stroke="#F5EFDB" />
</svg>